<svg xmlns="http://www.w3.org/2000/svg" fill="none" viewBox="0 0 1280 340"><g clip-path="url(#clip0)"><rect width="1280" height="340" fill="#fff" rx="10"/><g clip-path="url(#clip1)"><path fill="#000" d="M1644-166H-38v597h1682v-597z"/><path fill="url(#paint0_linear)" d="M-38-456.647c38.038 6.344 143.601 27.805 228.227 38.065 84.626 10.259 194.3 11.852 279.53 23.493 85.229 11.641 157.24 25.257 231.847 46.352 74.607 21.095 137.128 63.35 215.797 80.219 78.668 16.868 179.789 8.416 256.219 20.994 76.42 12.578 123.92 39.58 202.32 54.476 78.4 14.896 223.38 29.084 268.06 34.901V431H-38v-887.647z"/><path fill="url(#paint1_linear)" d="M-38-410.636c35.963 4.422 139.08 7.666 215.78 26.53 76.699 18.864 155.374 67.882 244.417 86.654 89.043 18.773 212.649 17.985 289.841 25.981 77.191 7.996 95.708 4.881 173.31 21.994 77.601 17.112 209.812 68.407 292.292 80.682 82.49 12.274 124.88-17.796 202.6-7.037 77.73 10.759 219.8 59.661 263.76 71.593V431H-38v-841.636z"/><path fill="url(#paint2_linear)" d="M-38-336.988c44.841 6.362 174.053 17.658 269.047 38.169 94.995 20.51 200.086 63.258 300.92 84.893 100.834 21.635 211.124 29.369 304.085 44.917 92.961 15.547 172.488 29.093 253.678 48.369 81.19 19.275 141.08 50.958 233.46 67.282 92.38 16.325 267.34 25.553 320.81 30.664V431H-38v-767.988z"/><path fill="url(#paint3_linear)" d="M-38-247.527c56.427 12.722 225.244 55.345 338.564 76.335 113.319 20.989 228.825 30.811 341.354 49.604 112.529 18.792 225.177 43.226 333.819 63.151C1084.38-38.512 1182.4-24.222 1293.77-2.039 1405.15 20.145 1585.63 61.88 1644 74.663V431H-38v-678.527z"/><path fill="url(#paint4_linear)" d="M-38-182.223c28.208 11.129 96.459 58.457 169.247 66.769 72.789 8.313 197.262-29.639 267.485-16.892 70.224 12.747 80.237 74.793 153.854 93.372C626.204-20.396 771.022-28.5 840.438-20.877c69.416 7.623 59.973 14.512 128.647 27.637 68.675 13.124 199.865 33.053 283.395 51.111 83.53 18.058 152.52 42.236 217.77 57.235 65.26 14.999 144.79 27.299 173.75 32.759V431H-38v-613.223z"/><path fill="url(#paint5_linear)" d="M-38-119.54c69.82 15.023 276.089 61.02 418.925 90.14C523.762-.28 675.248 30.458 819.019 55.183c143.772 24.724 287.041 36.554 424.531 63.764 137.5 27.21 333.71 82.914 400.45 99.497V431H-38v-550.54z"/><path fill="url(#paint6_linear)" d="M-38-46.647c39.682 3.95 147.212 2.715 238.092 23.702C290.972-1.957 401.77 55.28 507.279 79.28c105.509 24.002 236.367 18.691 325.868 41.787 89.5 23.095 128.437 73.684 211.133 96.786 82.7 23.103 185.09 28.263 285.05 41.827 99.95 13.563 262.22 32.962 314.67 39.554V431H-38V-46.647z"/><path fill="#fff" fill-rule="evenodd" d="M575.286 62.286C571.184 66.387 571 69.428 571 133c0 63.572.184 66.613 4.286 70.714C579.387 207.816 582.428 208 646 208c63.572 0 66.613-.184 70.714-4.286C720.816 199.613 721 196.572 721 133c0-63.572-.184-66.613-4.286-70.714C712.613 58.184 709.572 58 646 58c-63.572 0-66.613.184-70.714 4.286z" clip-rule="evenodd"/><path fill="#FE140A" fill-rule="evenodd" d="M575.286 62.286C571.184 66.387 571 69.428 571 133c0 63.572.184 66.613 4.286 70.714C579.387 207.816 582.428 208 646 208c63.572 0 66.613-.184 70.714-4.286C720.816 199.613 721 196.572 721 133c0-63.572-.184-66.613-4.286-70.714C712.613 58.184 709.572 58 646 58c-63.572 0-66.613.184-70.714 4.286zm93.923 42.006c12.283 6.122 17.52 13.564 17.482 24.851l-.024 7.071-5.451-6.917c-6.512-8.263-21.703-13.446-39.356-13.427-14.621.013-28.581 3.626-27.405 7.089.606 1.787 6.604 2.314 20.192 1.774 28.335-1.125 43.496 6.416 43.496 21.634 0 7.305-12.133 18.054-23.921 21.191-11.537 3.071-26.76-.116-29.051-6.084-3.46-9.017 18.791-15.092 29.025-7.924 6.847 4.796 2.469 9.45-8.886 9.45-6.221 0-8.076.662-6.439 2.299 2.972 2.972 17.668-.805 24.426-6.278 5.874-4.757 4.451-10.192-3.452-13.196-3.054-1.161-15.133-2.111-26.841-2.111-18.341 0-21.875-.585-25.522-4.232-10.71-10.71-6.718-27.821 8.349-35.79 13.896-7.348 37.971-7.078 53.378.6z" clip-rule="evenodd"/></g><path fill="#fff" d="M565.42 272.455c1.21 0 2.2-.092 2.97-.275.807-.22 1.448-.495 1.925-.825.477-.367.807-.788.99-1.265a4.42 4.42 0 0 0 .275-1.595c0-1.247-.587-2.273-1.76-3.08-1.173-.843-3.19-1.742-6.05-2.695a52.812 52.812 0 0 1-3.74-1.485 14.99 14.99 0 0 1-3.355-2.145 10.715 10.715 0 0 1-2.42-3.135c-.623-1.247-.935-2.75-.935-4.51 0-1.76.33-3.337.99-4.73.66-1.43 1.595-2.64 2.805-3.63 1.21-.99 2.677-1.742 4.4-2.255 1.723-.55 3.667-.825 5.83-.825 2.567 0 4.785.275 6.655.825 1.87.55 3.41 1.155 4.62 1.815l-2.475 6.765a21.323 21.323 0 0 0-3.575-1.43c-1.283-.44-2.842-.66-4.675-.66-2.053 0-3.538.293-4.455.88-.88.55-1.32 1.412-1.32 2.585 0 .697.165 1.283.495 1.76.33.477.788.917 1.375 1.32.623.367 1.32.715 2.09 1.045.807.293 1.687.605 2.64.935 1.98.733 3.703 1.467 5.17 2.2 1.467.697 2.677 1.522 3.63 2.475a8.91 8.91 0 0 1 2.2 3.355c.477 1.283.715 2.842.715 4.675 0 3.557-1.247 6.325-3.74 8.305-2.493 1.943-6.252 2.915-11.275 2.915-1.687 0-3.208-.11-4.565-.33a27.646 27.646 0 0 1-3.63-.715 22.695 22.695 0 0 1-2.695-.935 22.197 22.197 0 0 1-1.87-.935l2.42-6.82c1.137.623 2.53 1.192 4.18 1.705 1.687.477 3.74.715 6.16.715zm19.692-7.7c0-2.567.385-4.803 1.155-6.71.806-1.943 1.851-3.557 3.135-4.84a12.995 12.995 0 0 1 4.4-2.915c1.686-.66 3.41-.99 5.17-.99 4.106 0 7.351 1.265 9.735 3.795 2.383 2.493 3.575 6.178 3.575 11.055 0 .477-.019 1.008-.055 1.595-.037.55-.074 1.045-.11 1.485h-18.59c.183 1.687.971 3.025 2.365 4.015 1.393.99 3.263 1.485 5.61 1.485 1.503 0 2.97-.128 4.4-.385 1.466-.293 2.658-.642 3.575-1.045l1.1 6.655c-.44.22-1.027.44-1.76.66-.734.22-1.559.403-2.475.55-.88.183-1.834.33-2.86.44-1.027.11-2.054.165-3.08.165-2.604 0-4.877-.385-6.82-1.155-1.907-.77-3.502-1.815-4.785-3.135-1.247-1.357-2.182-2.952-2.805-4.785-.587-1.833-.88-3.813-.88-5.94zm19.25-3.135a7.694 7.694 0 0 0-.385-2.035 4.543 4.543 0 0 0-.935-1.76c-.404-.513-.935-.935-1.595-1.265-.624-.33-1.412-.495-2.365-.495-.917 0-1.705.165-2.365.495-.66.293-1.21.697-1.65 1.21a5.863 5.863 0 0 0-1.045 1.815c-.22.66-.385 1.338-.495 2.035h10.835zm12.869 2.915c0-2.09.33-4.052.99-5.885.697-1.87 1.687-3.483 2.97-4.84 1.283-1.393 2.842-2.493 4.675-3.3 1.833-.807 3.923-1.21 6.27-1.21 1.54 0 2.952.147 4.235.44a19.24 19.24 0 0 1 3.74 1.155l-1.705 6.545c-.77-.293-1.613-.55-2.53-.77-.917-.22-1.943-.33-3.08-.33-2.42 0-4.235.752-5.445 2.255-1.173 1.503-1.76 3.483-1.76 5.94 0 2.603.55 4.62 1.65 6.05 1.137 1.43 3.098 2.145 5.885 2.145.99 0 2.053-.092 3.19-.275a13.552 13.552 0 0 0 3.135-.88l1.155 6.71c-.953.403-2.145.752-3.575 1.045-1.43.293-3.007.44-4.73.44-2.64 0-4.913-.385-6.82-1.155-1.907-.807-3.483-1.888-4.73-3.245-1.21-1.357-2.108-2.952-2.695-4.785-.55-1.87-.825-3.887-.825-6.05zm53.57 13.475c-1.393.403-3.19.77-5.39 1.1-2.2.367-4.51.55-6.93.55-2.457 0-4.51-.33-6.16-.99-1.613-.66-2.897-1.577-3.85-2.75-.953-1.21-1.632-2.64-2.035-4.29-.403-1.65-.605-3.465-.605-5.445V250.07h8.195v15.125c0 2.64.348 4.547 1.045 5.72s1.998 1.76 3.905 1.76c.587 0 1.21-.018 1.87-.055a57.3 57.3 0 0 0 1.76-.22v-22.33h8.195v27.94zm25.128-20.68a43.491 43.491 0 0 0-2.585-.55c-.99-.22-2.054-.33-3.19-.33-.514 0-1.137.055-1.87.165-.697.073-1.229.165-1.595.275V279h-8.195v-27.39c1.466-.513 3.19-.99 5.17-1.43 2.016-.477 4.253-.715 6.71-.715.44 0 .971.037 1.595.11.623.037 1.246.11 1.87.22.623.073 1.246.183 1.87.33a7.65 7.65 0 0 1 1.595.44l-1.375 6.765zm18.337 1.54l5.72-8.8h8.47l-9.9 13.915a142.39 142.39 0 0 1 5.995 8.03c1.797 2.603 3.227 4.932 4.29 6.985h-8.8c-.293-.55-.66-1.228-1.1-2.035a38.494 38.494 0 0 0-1.485-2.585 42.467 42.467 0 0 0-1.76-2.695 28.812 28.812 0 0 0-1.76-2.475 48.209 48.209 0 0 0-1.705 2.31 60.41 60.41 0 0 0-1.595 2.585l-1.54 2.53a53.066 53.066 0 0 0-1.265 2.365h-8.36c.44-.917 1.045-1.998 1.815-3.245s1.595-2.53 2.475-3.85c.917-1.357 1.87-2.695 2.86-4.015a92.203 92.203 0 0 1 2.915-3.795c-1.65-2.31-3.3-4.638-4.95-6.985-1.65-2.383-3.282-4.73-4.895-7.04h8.855l5.72 8.8z"/></g><defs><linearGradient id="paint0_linear" x1="803" x2="529.282" y1="-456.647" y2="580.687" gradientUnits="userSpaceOnUse"><stop stop-color="#288A82"/><stop offset=".1" stop-color="#060714"/></linearGradient><linearGradient id="paint1_linear" x1="803" x2="555.295" y1="-410.636" y2="579.436" gradientUnits="userSpaceOnUse"><stop stop-color="#288A5B"/><stop offset=".229" stop-color="#060D14"/></linearGradient><linearGradient id="paint2_linear" x1="803" x2="594.696" y1="-336.988" y2="575.442" gradientUnits="userSpaceOnUse"><stop stop-color="#288A47"/><stop offset=".357" stop-color="#060F14"/></linearGradient><linearGradient id="paint3_linear" x1="803" x2="638.612" y1="-247.527" y2="567.474" gradientUnits="userSpaceOnUse"><stop stop-color="#C0F2DA"/><stop offset=".486" stop-color="#428AD7"/></linearGradient><linearGradient id="paint4_linear" x1="803" x2="667.764" y1="-182.223" y2="559.654" gradientUnits="userSpaceOnUse"><stop stop-color="#C0F2DA"/><stop offset=".614" stop-color="#428AD7"/></linearGradient><linearGradient id="paint5_linear" x1="803" x2="693.313" y1="-119.54" y2="550.684" gradientUnits="userSpaceOnUse"><stop stop-color="#C0F2D0"/><stop offset=".743" stop-color="#42A8D7"/></linearGradient><linearGradient id="paint6_linear" x1="803" x2="719.9" y1="-46.647" y2="538.612" gradientUnits="userSpaceOnUse"><stop stop-color="#C0F2DA"/><stop offset=".871" stop-color="#428AD7"/></linearGradient><clipPath id="clip0"><rect width="1280" height="340" fill="#fff" rx="10"/></clipPath><clipPath id="clip1"><path fill="#fff" d="M0 0h1682v597H0z" transform="translate(-38 -166)"/></clipPath></defs></svg>