<svg xmlns="http://www.w3.org/2000/svg" xmlns:xlink="http://www.w3.org/1999/xlink" id="Layer_1" data-name="Layer 1" viewBox="0 0 162 33"><defs><style>.cls-1,.cls-2{fill:none}.cls-1{clip-rule:evenodd}.cls-3{fill:#f1a5ff}.cls-21{fill-rule:evenodd}.cls-10{clip-path:url(#clip-path-3)}.cls-11{fill:#974dff}.cls-18{fill:#373fff}.cls-21,.cls-22{fill:#fff}.cls-24{fill:#222}</style><clipPath id="clip-path"><path d="M24.284 25.215a2.578 2.578 0 0 1 .218 1.228 3.396 3.396 0 0 1-.847.096 5.612 5.612 0 0 1-2.352-.084 3.623 3.623 0 0 1-2.263-1.98s.015-.015.044-.04a.352.352 0 0 0-.147-.013 9.886 9.886 0 0 1-2.282.173 9.433 9.433 0 0 1-4.744-2.37s1.507-.368 1.507-.68-1.721-.885-1.721-.885-.26-1.435 1.584-2.867a11.275 11.275 0 0 1 3.21-1.89 9.634 9.634 0 0 1-4.58-2.358s1.507-.368 1.507-.679-1.721-.885-1.721-.885-.26-1.435 1.584-2.868 3.226-2.112 4.777-2.192 2.072-.08 2.072-.08 1.35-1.824 2.06-1.824c.355 0 5.552 1.105 6.002 1.824a1.864 1.864 0 0 0 .9.84c.23.172.085.034 1.127.267 2.608.582 2.252.811 4.19 1.165.784.143 4.378-1.623 4.717-1.451a3.355 3.355 0 0 1-.335 2.594c-.617.996.495 1.819-.004 3.066s.572 2.17.339 2.593-4.048-1.382-4.717-1.251a41.768 41.768 0 0 1-5.615 1.526 3.252 3.252 0 0 1 .298.17c.23.172.085.035 1.128.268 2.608.582 2.252.811 4.19 1.165.784.143 4.377-1.623 4.716-1.451a3.355 3.355 0 0 1-.335 2.594c-.617.996.496 1.819-.004 3.066s.572 2.17.34 2.593-4.049-1.382-4.717-1.251a38.276 38.276 0 0 1-6.85 1.732 16.775 16.775 0 0 1-3.276.139z" class="cls-1"/></clipPath><linearGradient id="New_Gradient_Swatch_1" x1="25.093" x2="25.093" y1="5.018" y2="12.891" gradientUnits="userSpaceOnUse"><stop offset="0" stop-color="#e559ff"/><stop offset="1" stop-color="#924dff"/></linearGradient><linearGradient id="New_Gradient_Swatch_2" x1="18.361" x2="29.878" y1="8.916" y2="16.604" gradientUnits="userSpaceOnUse"><stop offset="0" stop-color="#f1a5ff"/><stop offset="1" stop-color="#ff686c"/></linearGradient><linearGradient id="linear-gradient" x1="25.557" x2="25.557" y1="15.032" y2="21.76" gradientUnits="userSpaceOnUse"><stop offset="0" stop-color="#6f3cff"/><stop offset="1" stop-color="#3633ff"/></linearGradient><clipPath id="clip-path-2"><path d="M22.378 9.06a338.857 338.857 0 0 1 1.823.099c.398.023.731.044.987.061a32.688 32.688 0 0 1 3.583.517 24.186 24.186 0 0 1 5.412 1.86c.172.076.762.34.776.345a.285.285 0 0 0 .381-.184.344.344 0 0 0-.164-.428l-.777-.346a24.67 24.67 0 0 0-5.525-1.895 33.166 33.166 0 0 0-3.65-.526 88.786 88.786 0 0 0-1.435-.087c-.44-.024-.912-.05-1.384-.074l-.456-.023-.128-.006-.046-.003a.328.328 0 0 0-.273.481l.024.055c.02.047.044.1.069.161.072.174.143.363.21.561a6.537 6.537 0 0 1 .24.902c.02.106.035.208.045.305a5.038 5.038 0 0 1-.173 1.375c-.048.216-.105.443-.168.678a22.31 22.31 0 0 1-.324 1.093l-.022.068-.007.023a.342.342 0 0 0 .172.424.286.286 0 0 0 .379-.192l.008-.026.024-.072a22.874 22.874 0 0 0 .509-1.835 5.515 5.515 0 0 0 .186-1.61q-.017-.176-.052-.363a7.237 7.237 0 0 0-.267-1.003 10.23 10.23 0 0 0-.123-.342z" class="cls-2"/></clipPath><clipPath id="clip-path-3"><path d="M11.696 5.018h27.587v21.637H11.696z" class="cls-2"/></clipPath><clipPath id="clip-path-4"><path d="M22.382 12.851q.058-.23.106-.45a5.655 5.655 0 0 0 .187-1.631q-.018-.178-.052-.367a7.406 7.406 0 0 0-.267-1.016c-.04-.12-.081-.235-.123-.347l.145.007a353.782 353.782 0 0 1 1.823.1c.397.024.731.045.987.063a32.298 32.298 0 0 1 3.583.523 23.976 23.976 0 0 1 5.412 1.884c.172.077.762.343.775.35a.284.284 0 0 0 .382-.187.35.35 0 0 0-.164-.433l-.777-.35a24.455 24.455 0 0 0-5.525-1.92 32.77 32.77 0 0 0-3.65-.533 88.475 88.475 0 0 0-1.435-.088c-.44-.025-.912-.05-1.384-.075l-.456-.023-.128-.007-.045-.002a.332.332 0 0 0-.274.487l.024.056.069.163c.072.176.143.368.21.568a6.69 6.69 0 0 1 .241.914c.02.107.034.21.044.308a5.165 5.165 0 0 1-.173 1.393c-.043.196-.093.402-.149.614z" class="cls-2"/></clipPath><clipPath id="clip-path-5"><path d="M11.696 4.975h27.587v21.916H11.696z" class="cls-2"/></clipPath><clipPath id="clip-path-6"><path d="M19.978 9.169l.029.048.08.145c.083.156.167.326.244.506a4.665 4.665 0 0 1 .295.89 2.237 2.237 0 0 1 .051.45 3.875 3.875 0 0 1-.233 1.232 5.348 5.348 0 0 1-.214.53l-.018.035a.31.31 0 0 0 .103.403.259.259 0 0 0 .368-.113 5.828 5.828 0 0 0 .268-.648 4.485 4.485 0 0 0 .267-1.44 2.868 2.868 0 0 0-.065-.58 5.267 5.267 0 0 0-.333-1.012 7.508 7.508 0 0 0-.39-.772.257.257 0 0 0-.376-.083.312.312 0 0 0-.076.409z" class="cls-2"/></clipPath><clipPath id="clip-path-8"><path d="M20.89 12.851l.06-.17a4.604 4.604 0 0 0 .268-1.46 2.947 2.947 0 0 0-.065-.59 5.393 5.393 0 0 0-.333-1.025 7.631 7.631 0 0 0-.39-.783.255.255 0 0 0-.376-.085.32.32 0 0 0-.076.415l.028.05.08.146c.084.158.167.331.245.513a4.776 4.776 0 0 1 .295.902 2.299 2.299 0 0 1 .051.456 3.978 3.978 0 0 1-.233 1.25 5.376 5.376 0 0 1-.145.381z" class="cls-3"/></clipPath><linearGradient id="New_Gradient_Swatch_2-2" x1="23.006" x2="27.744" y1="20.753" y2="26.434" xlink:href="#New_Gradient_Swatch_2"/><clipPath id="clip-path-9"><path d="M22.378 17.842a321.804 321.804 0 0 1 1.823.098c.398.023.731.044.987.062a32.69 32.69 0 0 1 3.583.517 24.186 24.186 0 0 1 5.412 1.86l.776.345a.285.285 0 0 0 .381-.185.344.344 0 0 0-.164-.428c-.014-.005-.604-.269-.777-.345a24.669 24.669 0 0 0-5.525-1.896 33.164 33.164 0 0 0-3.65-.525 88.786 88.786 0 0 0-1.435-.087c-.44-.025-.912-.05-1.384-.074l-.456-.024-.128-.006-.045-.002a.328.328 0 0 0-.274.481l.024.055.069.16c.072.174.143.364.21.562a6.537 6.537 0 0 1 .24.902c.02.106.035.208.045.304a5.038 5.038 0 0 1-.173 1.375c-.048.216-.105.444-.168.679a22.31 22.31 0 0 1-.323 1.093l-.023.068-.007.023a.342.342 0 0 0 .172.424.286.286 0 0 0 .379-.192l.008-.026.024-.072a22.874 22.874 0 0 0 .51-1.836 5.515 5.515 0 0 0 .185-1.61q-.017-.175-.052-.362a7.237 7.237 0 0 0-.267-1.003 10.23 10.23 0 0 0-.122-.343z" class="cls-2"/></clipPath><clipPath id="clip-path-11"><path d="M22.382 21.584q.058-.228.106-.445a5.515 5.515 0 0 0 .187-1.61q-.018-.175-.052-.362a7.237 7.237 0 0 0-.267-1.004 10.23 10.23 0 0 0-.123-.342l.145.007a321.804 321.804 0 0 1 1.823.1c.397.022.731.043.987.06a32.69 32.69 0 0 1 3.583.517 24.186 24.186 0 0 1 5.412 1.86l.775.346a.285.285 0 0 0 .382-.185.344.344 0 0 0-.164-.428l-.777-.345a24.669 24.669 0 0 0-5.525-1.896 33.164 33.164 0 0 0-3.65-.526 88.786 88.786 0 0 0-1.435-.087c-.44-.024-.912-.05-1.384-.074l-.456-.023-.128-.006-.045-.003a.328.328 0 0 0-.274.482l.024.054.069.162c.072.173.143.362.21.56a6.537 6.537 0 0 1 .241.903c.02.106.034.207.044.304a5.038 5.038 0 0 1-.173 1.375c-.043.194-.093.397-.149.606z" class="cls-2"/></clipPath><clipPath id="clip-path-13"><path d="M20.89 21.584l.06-.168a4.485 4.485 0 0 0 .268-1.44 2.868 2.868 0 0 0-.065-.581 5.267 5.267 0 0 0-.333-1.012 7.508 7.508 0 0 0-.39-.772.257.257 0 0 0-.376-.083.312.312 0 0 0-.076.409l.028.048a6.893 6.893 0 0 1 .325.65 4.664 4.664 0 0 1 .295.89 2.237 2.237 0 0 1 .051.45 3.875 3.875 0 0 1-.233 1.233c-.046.135-.095.261-.145.376z" class="cls-3"/></clipPath><clipPath id="clip-path-14"><path d="M0 4.994A4.996 4.996 0 0 1 4.998 0h152.004A4.996 4.996 0 0 1 162 4.994v23.012A4.996 4.996 0 0 1 157.002 33H4.998A4.996 4.996 0 0 1 0 28.006zm2 0v23.012A2.996 2.996 0 0 0 4.998 31h152.004A2.996 2.996 0 0 0 160 28.006V4.994A2.996 2.996 0 0 0 157.002 2H4.998A2.996 2.996 0 0 0 2 4.994z" class="cls-2"/></clipPath><clipPath id="clip-path-15"><path d="M143.61 21v-5.138a3.014 3.014 0 0 1 2.016-.966c.756 0 1.106.378 1.106 1.204V21h1.736v-5.334a2.002 2.002 0 0 0-2.142-2.24 3.685 3.685 0 0 0-2.716 1.148V10.64h-1.736V21zm-6.314.154a3.268 3.268 0 0 0 3.206-2.184l-1.428-.518a1.644 1.644 0 0 1-1.736 1.288c-1.134 0-1.778-.868-1.778-2.45 0-1.778.826-2.422 1.806-2.422a1.625 1.625 0 0 1 1.652 1.246l1.456-.518a3.02 3.02 0 0 0-3.08-2.17 3.488 3.488 0 0 0-3.57 3.864c0 2.716 1.75 3.864 3.472 3.864zm-5.81-.056a8.493 8.493 0 0 0 1.26-.098v-1.358a2.804 2.804 0 0 1-.742.098c-.854 0-1.092-.322-1.092-1.12v-3.682h1.918v-1.372h-1.918v-2.59h-1.722v2.59h-1.288v1.372h1.288v4.116c0 1.344.406 2.044 2.296 2.044zm-4.872-8.82V10.78h-1.764v1.498zM126.6 21v-7.434h-1.736V21zm-3.808 0V10.64h-1.736V21zm-8.106.196a2.986 2.986 0 0 0 2.828-1.694h.028V21h1.442v-5.124h-3.766v1.414h2.086a2.283 2.283 0 0 1-2.422 2.338c-1.47 0-2.856-.994-2.856-3.892 0-2.912 1.554-3.668 2.786-3.668s1.946.518 2.408 2.072l1.624-.434a3.831 3.831 0 0 0-4.018-3.262c-2.758 0-4.564 2.016-4.564 5.334 0 3.164 1.456 5.418 4.424 5.418zM100.336 21v-5.18a2.953 2.953 0 0 1 2.016-.966c.784 0 1.12.42 1.12 1.232V21h1.722v-5.404a1.965 1.965 0 0 0-2.198-2.17 3.509 3.509 0 0 0-2.66 1.33v-1.19h-1.722V21zm-6.874-1.288c1.246 0 1.89-.896 1.89-2.422 0-1.386-.588-2.394-1.89-2.394-1.246 0-1.89.896-1.89 2.394 0 1.414.574 2.422 1.89 2.422zm0 1.442a3.521 3.521 0 0 1-3.626-3.864 3.633 3.633 0 1 1 7.252 0 3.521 3.521 0 0 1-3.626 3.864zM80.344 21l1.68-2.604L83.732 21h1.834l-2.576-3.836 2.436-3.598h-1.778l-1.498 2.38-1.554-2.38h-1.834l2.408 3.598L78.58 21zm-3.052-8.722V10.78h-1.764v1.498zM77.278 21v-7.434h-1.736V21zm-13.02 0v-5.138a2.945 2.945 0 0 1 1.904-.966c.812 0 1.05.378 1.05 1.204V21h1.722v-5.138a2.915 2.915 0 0 1 1.904-.966c.812 0 1.05.378 1.05 1.204V21h1.722v-5.334a1.988 1.988 0 0 0-2.17-2.24 3.524 3.524 0 0 0-2.604 1.218 1.86 1.86 0 0 0-2.03-1.218 3.383 3.383 0 0 0-2.548 1.162v-1.022h-1.722V21zm-8.288-4.438h3.472c-.098-1.134-.658-1.736-1.694-1.736a1.743 1.743 0 0 0-1.778 1.736zm1.834 4.592c-1.862 0-3.584-1.134-3.584-3.864a3.533 3.533 0 0 1 3.542-3.864c1.666 0 3.262.994 3.262 4.018v.406h-5.082a1.84 1.84 0 0 0 1.988 1.932 2.695 2.695 0 0 0 2.086-.868l.91.896a4.012 4.012 0 0 1-3.122 1.344zm-10.906-8.918v3.15h1.918c1.456 0 2.24-.364 2.24-1.596 0-1.19-.77-1.554-2.254-1.554zm0 8.764h-1.722V10.64h3.71c2.464 0 3.892.994 3.892 3.108a2.756 2.756 0 0 1-2.296 2.94L52.918 21h-1.876l-2.324-4.088h-1.82z" class="cls-1"/></clipPath></defs><g style="isolation:isolate" clip-path="url(#clip-path)"><path fill="url(#New_Gradient_Swatch_1)" d="M10.958 5.018h28.271v7.921H10.958z"/><path fill="url(#New_Gradient_Swatch_2)" d="M36.021 16.642l3.234-.443.073-1.039v-2.3l-.252-.81H28.532v.81H11.696v2.3l2.273.75 8.613.732h1.877"/><path fill="url(#linear-gradient)" fill-rule="evenodd" d="M22.582 15.16h9.804v1.057l7.032-.019v4.575H24.813v.811H11.696v-5.386l4.091-.294 6.795.053v-.797z"/><g class="cls-10" clip-path="url(#clip-path-2)"><path d="M21.027 8.061H35.7v6.829H21.027z" class="cls-11"/></g><g clip-path="url(#clip-path-4)"><g clip-path="url(#clip-path-5)"><path d="M21.162 7.989h14.537v5.205H21.162z" class="cls-3"/></g></g><g class="cls-10" clip-path="url(#clip-path-6)"><path d="M19.607 8.399h1.961v5.409h-1.961z" class="cls-11"/></g><path d="M20.89 12.851l.06-.17a4.604 4.604 0 0 0 .268-1.46 2.947 2.947 0 0 0-.065-.59 5.393 5.393 0 0 0-.333-1.025 7.631 7.631 0 0 0-.39-.783.255.255 0 0 0-.376-.085.32.32 0 0 0-.076.415l.028.05.08.146c.084.158.167.331.245.513a4.776 4.776 0 0 1 .295.902 2.299 2.299 0 0 1 .051.456 3.978 3.978 0 0 1-.233 1.25 5.376 5.376 0 0 1-.145.381z" class="cls-3"/><g clip-path="url(#clip-path-8)"><path d="M11.696 4.967h27.587v21.939H11.696z" class="cls-3"/></g><path fill="url(#New_Gradient_Swatch_2-2)" d="M39.263 26.655H11.676v-5.071h13.117l-.001-.825h14.471v5.896z"/><g class="cls-10" clip-path="url(#clip-path-9)"><path d="M21.027 16.783H35.7v6.829H21.027z" class="cls-18"/></g><g class="cls-10" clip-path="url(#clip-path-11)"><path d="M21.162 16.783h14.537v5.139H21.162z" class="cls-3"/></g><path d="M19.978 17.95l.029.048.08.145c.083.156.167.327.244.506a4.664 4.664 0 0 1 .295.89 2.237 2.237 0 0 1 .051.45 3.875 3.875 0 0 1-.233 1.232 5.348 5.348 0 0 1-.214.53l-.018.035a.31.31 0 0 0 .103.403.259.259 0 0 0 .368-.112 5.816 5.816 0 0 0 .268-.648 4.485 4.485 0 0 0 .267-1.44 2.868 2.868 0 0 0-.065-.581 5.267 5.267 0 0 0-.333-1.012 7.508 7.508 0 0 0-.39-.772.257.257 0 0 0-.375-.083.312.312 0 0 0-.077.409z" class="cls-18"/><path d="M20.89 21.584l.06-.168a4.485 4.485 0 0 0 .268-1.44 2.868 2.868 0 0 0-.065-.581 5.267 5.267 0 0 0-.333-1.012 7.508 7.508 0 0 0-.39-.772.257.257 0 0 0-.376-.083.312.312 0 0 0-.076.409l.028.048a6.893 6.893 0 0 1 .325.65 4.664 4.664 0 0 1 .295.89 2.237 2.237 0 0 1 .051.45 3.875 3.875 0 0 1-.233 1.233c-.046.135-.095.261-.145.376z" class="cls-3"/><g clip-path="url(#clip-path-13)"><path d="M11.696 5.018h27.587v21.637H11.696z" class="cls-3"/></g></g><circle cx="16.391" cy="10.66" r="1.196"/><path d="M15.195 10.565v-.015a1.29 1.29 0 1 1 1.288 1.327 1.19 1.19 0 0 1-1.27-1.103.94.94 0 0 0 .975.826 1.023 1.023 0 1 0-.993-1.035z" class="cls-21"/><circle cx="15.71" cy="10.934" r=".329" class="cls-22"/><circle cx="16.391" cy="19.403" r="1.196"/><path d="M15.195 19.307v-.014a1.29 1.29 0 1 1 1.288 1.327 1.19 1.19 0 0 1-1.27-1.103.94.94 0 0 0 .975.827 1.023 1.023 0 1 0-.993-1.036z" class="cls-21"/><circle cx="15.71" cy="19.677" r=".329" class="cls-22"/><g clip-path="url(#clip-path-14)"><path d="M-5-5h172v43H-5z" class="cls-24"/></g><g clip-path="url(#clip-path-15)"><path d="M40.176 5.444h113.292v20.752H40.176z" class="cls-24"/></g></svg>